# xmcd
#
# Track frame offsets:
#	150
#	15750
#	31495
#	47423
#	60369
#	77258
#	101189
#	114676
#	128239
#	145582
#	163906
#
# Disc length: 2427 seconds
# Revision: 0
# Processed by: cddbd v1.5.2PL0 Copyright (c) Steve Scherf et al.
# Submitted via: dBpowerAMP V12.0
#
DISCID=8009790b
DTITLE=Summer Brooke and the Mountain Faith Band - Small Town Life
DYEAR=2017
DGENRE=Country
TTITLE0=Who Will You Be
TTITLE1=Perfect Day
TTITLE2=Umbrella
TTITLE3=Lazy River
TTITLE4=Queen Anne's Revenge
TTITLE5=Bring the Heat
TTITLE6=God's Blessings
TTITLE7=Lead Me On
TTITLE8=1969
TTITLE9=Jawbone Hill
TTITLE10=Small Town Life
EXTD=
EXTT0=
EXTT1=
EXTT2=
EXTT3=
EXTT4=
EXTT5=
EXTT6=
EXTT7=
EXTT8=
EXTT9=
EXTT10=
PLAYORDER=
